<?xml version="1.0" standalone="no"?>
<!DOCTYPE svg PUBLIC "-//W3C//DTD SVG 20010904//EN"
 "http://www.w3.org/TR/2001/REC-SVG-20010904/DTD/svg10.dtd">
<svg version="1.0" xmlns="http://www.w3.org/2000/svg"
 width="256.000000pt" height="256.000000pt" viewBox="0 0 256.000000 256.000000"
 preserveAspectRatio="xMidYMid meet">

<g transform="translate(0.000000,256.000000) scale(0.100000,-0.100000)"
fill="#000000" stroke="none">
<path d="M618 2390 c-101 -12 -169 -36 -238 -81 -99 -66 -165 -161 -197 -281
-14 -55 -16 -138 -18 -653 0 -324 0 -413 2 -196 3 355 5 392 19 380 13 -10 17
-10 25 2 5 8 9 9 9 3 0 -7 15 -9 45 -4 24 4 42 3 39 -2 -3 -4 5 -8 16 -8 15 0
20 5 17 15 -4 8 -2 17 3 20 6 4 10 -1 10 -10 0 -13 4 -14 22 -4 18 10 24 8 35
-7 7 -10 13 -13 13 -7 0 13 25 11 37 -2 4 -4 2 -5 -4 -1 -8 4 -13 2 -13 -7 0
-7 6 -14 14 -14 9 0 16 16 19 44 7 65 61 166 119 223 76 75 162 113 269 118
60 3 102 0 141 -12 79 -23 171 -88 216 -152 33 -47 41 -53 72 -54 91 -1 204
-48 280 -116 44 -40 50 -41 51 -11 1 16 3 17 6 5 3 -11 10 -15 20 -11 12 5 14
3 8 -8 -8 -12 -6 -12 9 0 15 13 19 13 27 0 5 -8 9 -9 9 -4 0 6 16 10 35 10 23
0 34 -4 31 -12 -4 -9 3 -11 22 -7 25 5 60 9 107 14 l20 1 -20 9 c-17 7 -17 9
-3 9 10 1 22 -7 27 -17 11 -22 53 -22 74 0 11 11 31 15 69 13 29 -2 53 -4 53
-5 0 -1 19 -3 43 -5 29 -3 41 -1 36 7 -4 6 -3 8 4 4 5 -3 12 -1 14 6 3 7 7 5
11 -6 4 -9 3 -15 -2 -12 -5 3 -12 -1 -15 -9 -4 -12 0 -14 22 -9 15 3 33 6 40
6 6 1 12 6 12 12 0 7 3 7 8 1 4 -5 18 -11 32 -12 72 -6 64 35 71 -388 4 -308
5 -269 4 210 -2 646 -3 657 -63 769 -35 65 -123 153 -188 188 -113 61 -118 61
-819 64 -352 1 -670 -2 -707 -6z m1647 -821 c-10 -15 -25 -10 -19 6 4 8 10 12
15 9 5 -3 7 -10 4 -15z m-395 7 c0 -3 -4 -8 -10 -11 -5 -3 -10 -1 -10 4 0 6 5
11 10 11 6 0 10 -2 10 -4z m511 -19 c-13 -13 -26 -3 -16 12 3 6 11 8 17 5 6
-4 6 -10 -1 -17z"/>
<path d="M2005 1559 c-4 -6 -4 -13 -1 -16 3 -4 6 -1 6 6 0 7 4 10 9 6 5 -3 12
-1 16 5 3 5 -1 10 -9 10 -8 0 -18 -5 -21 -11z"/>
<path d="M1717 1546 c-4 -10 0 -14 13 -13 14 1 16 4 8 14 -13 16 -15 16 -21
-1z"/>
<path d="M2062 1551 c-11 -7 -10 -10 3 -15 23 -9 25 -8 25 9 0 17 -9 19 -28 6z"/>
<path d="M245 1540 c-3 -6 1 -7 9 -4 18 7 21 14 7 14 -6 0 -13 -4 -16 -10z"/>
</g>
</svg>
